<?xml version="1.0" standalone="no"?>
<!DOCTYPE svg PUBLIC "-//W3C//DTD SVG 20010904//EN"
 "http://www.w3.org/TR/2001/REC-SVG-20010904/DTD/svg10.dtd">
<svg version="1.0" xmlns="http://www.w3.org/2000/svg"
 width="1730.000000pt" height="1730.000000pt" viewBox="0 0 1730.000000 1730.000000"
 preserveAspectRatio="xMidYMid meet">
<metadata>
Created by potrace 1.11, written by Peter Selinger 2001-2013
</metadata>
<g transform="translate(0.000000,1730.000000) scale(0.100000,-0.100000)"
fill="#000000" stroke="none">
<path d="M8335 17289 c-1746 -60 -3440 -654 -4839 -1698 -369 -276 -616 -489
-957 -830 -412 -413 -705 -763 -1027 -1231 -1311 -1906 -1798 -4291 -1341
-6581 415 -2086 1590 -3945 3304 -5228 1968 -1473 4462 -2035 6885 -1551 1983
397 3766 1484 5047 3080 450 561 855 1227 1150 1890 592 1331 839 2824 708
4280 -168 1862 -916 3586 -2164 4990 -152 171 -494 512 -676 675 -1179 1057
-2599 1761 -4150 2059 -429 82 -867 130 -1345 146 -288 10 -275 10 -595 -1z
m-1223 -4204 c444 -52 843 -217 1153 -477 363 -304 585 -713 660 -1213 20
-133 24 -460 6 -585 -62 -443 -221 -813 -499 -1160 -195 -244 -471 -488 -783
-695 l-110 -73 33 -20 c18 -11 123 -66 233 -121 678 -342 1545 -657 2410 -876
l250 -63 3 2569 2 2569 1415 0 1415 0 0 -460 0 -460 -875 0 -875 0 0 -4160 0
-4160 -540 0 -540 0 0 1570 0 1570 -24 0 c-14 0 -746 -459 -1841 -1156 -1000
-636 -1824 -1157 -1830 -1158 -12 -1 -865 773 -865 784 1 3 755 417 1678 921
l1677 916 0 33 0 32 -185 55 c-925 272 -1777 636 -2384 1018 l-100 62 -75 -34
c-133 -61 -539 -219 -751 -293 -378 -132 -802 -258 -1320 -393 -360 -94 -398
-103 -409 -91 -5 5 -174 209 -376 454 l-367 444 354 72 c722 146 1257 282
1788 456 118 39 218 72 221 74 3 2 -69 79 -160 171 -269 271 -432 490 -577
778 -172 342 -252 647 -270 1031 -17 369 70 735 254 1057 165 289 446 565 748
736 249 141 557 239 864 275 157 19 438 19 592 1z"/>
<path d="M6702 12169 c-210 -20 -408 -88 -561 -191 -82 -55 -225 -208 -275
-293 -107 -184 -145 -321 -153 -560 -19 -568 236 -1081 780 -1563 l116 -103
60 30 c86 44 250 143 366 222 284 193 514 425 648 653 168 288 230 637 171
965 -87 481 -424 790 -915 841 -110 11 -116 11 -237 -1z"/>
</g>
</svg>
