<svg width="326" height="326" viewBox="0 0 326 326" xmlns="http://www.w3.org/2000/svg"><path d="M163 326C72.978 326 0 253.022 0 163S72.978 0 163 0s163 72.978 163 163-72.978 163-163 163zm-23-88.016c0 6.188 2.273 11.555 6.82 16.102 4.547 4.547 9.96 6.82 16.243 6.82 6.28 0 11.742-2.273 16.382-6.82 4.64-4.547 6.96-9.914 6.96-16.102 0-6.28-2.296-11.742-6.89-16.382-4.593-4.64-10.077-6.96-16.452-6.96-6.282 0-11.696 2.295-16.243 6.89-4.547 4.593-6.82 10.077-6.82 16.452zM140.844 66l6.047 129.375h32.344L185 66h-44.156z" fill="#000" fill-rule="evenodd"/></svg>
