<svg xmlns="http://www.w3.org/2000/svg" xmlns:xlink="http://www.w3.org/1999/xlink" width="694" height="180" version="1.1" viewBox="0 0 694 180"><title>Combination mark</title><desc>Created with Sketch.</desc><g id="Page-1" fill="none" fill-rule="evenodd" stroke="none" stroke-width="1"><g id="Combination-mark"><g id="Symbol" fill="#007BFF"><path id="Shape" d="M58,116 C25.967,116 0,90.033 0,58 C0,25.967 25.967,0 58,0 C90.033,0 116,25.967 116,58 C116,90.033 90.033,116 58,116 Z M58.5,105 C84.734,105 106,83.734 106,57.5 C106,31.266 84.734,10 58.5,10 C32.266,10 11,31.266 11,57.5 C11,83.734 32.266,105 58.5,105 Z"/><circle id="Oval" cx="58.5" cy="57.5" r="35.5"/></g><path id="Wordmark" fill="#000" d="M205.237,79.658 C199.22297,85.995365 191.495381,89.164 182.054,89.164 C172.612619,89.164 164.901197,85.995365 158.9195,79.658 C152.937803,73.320635 149.947,65.3343815 149.947,55.699 C149.947,46.0636185 152.937803,38.077365 158.9195,31.74 C164.901197,25.402635 172.612619,22.234 182.054,22.234 C191.495381,22.234 199.22297,25.402635 205.237,31.74 C211.25103,38.077365 214.258,46.0636185 214.258,55.699 C214.258,65.3343815 211.25103,73.320635 205.237,79.658 Z M182.054,81.986 C189.167369,81.986 194.922645,79.5125247 199.32,74.5655 C203.717355,69.6184753 205.916,63.3297048 205.916,55.699 C205.916,48.0682952 203.717355,41.7795247 199.32,36.8325 C194.922645,31.8854753 189.167369,29.412 182.054,29.412 C174.875964,29.412 169.120688,31.8693088 164.788,36.784 C160.455312,41.6986912 158.289,48.0036282 158.289,55.699 C158.289,63.3297048 160.455312,69.6184753 164.788,74.5655 C169.120688,79.5125247 174.875964,81.986 182.054,81.986 Z M242.418,89.164 C234.528627,89.164 228.22369,86.7066912 223.503,81.792 L227.189,76.554 C228.805675,78.4293427 231.020486,80.0136602 233.8335,81.307 C236.646514,82.6003398 239.572651,83.247 242.612,83.247 C246.104017,83.247 248.836157,82.5033408 250.8085,81.016 C252.780843,79.5286592 253.767,77.5886786 253.767,75.196 C253.767,73.1266563 252.764677,71.4938393 250.76,70.2975 C248.755323,69.1011607 246.330348,68.1958364 243.485,67.5815 C240.639652,66.9671636 237.810514,66.2558374 234.9975,65.4475 C232.184486,64.6391626 229.775677,63.2488432 227.771,61.2765 C225.766323,59.3041568 224.764,56.7013495 224.764,53.468 C224.764,49.6526476 226.315984,46.4516796 229.42,43.865 C232.524016,41.2783204 236.75964,39.985 242.127,39.985 C249.305036,39.985 255.092645,42.2483107 259.49,46.775 L256.095,51.819 C252.796984,47.8743136 248.14103,45.902 242.127,45.902 C238.958317,45.902 236.436343,46.5971597 234.561,47.9875 C232.685657,49.3778403 231.748,51.1399893 231.748,53.274 C231.748,54.8260078 232.459326,56.1193282 233.882,57.154 C235.304674,58.1886718 237.099156,58.9323311 239.2655,59.385 C241.431844,59.8376689 243.759821,60.4196631 246.2495,61.131 C248.739179,61.8423369 251.067156,62.6344956 253.2335,63.5075 C255.399844,64.3805044 257.194326,65.8031568 258.617,67.7755 C260.039674,69.7478432 260.751,72.1566524 260.751,75.002 C260.751,79.1406874 259.150516,82.5356534 255.9495,85.187 C252.748484,87.8383466 248.238029,89.164 242.418,89.164 Z M321.503,88 L314.131,88 L301.909,50.364 L289.687,88 L282.412,88 L267.474,41.149 L275.04,41.149 L286.486,78.494 L298.805,41.149 L305.11,41.149 L317.332,78.494 L328.778,41.149 L336.441,41.149 L321.503,88 Z M382.352,88 L375.077,88 L375.077,82.665 C371.261648,86.9976883 366.088366,89.164 359.557,89.164 C355.288979,89.164 351.506016,87.7736806 348.208,84.993 C344.909984,82.2123194 343.261,78.4293573 343.261,73.644 C343.261,68.6646418 344.877651,64.8493466 348.111,62.198 C351.34435,59.5466534 355.159645,58.221 359.557,58.221 C366.153033,58.221 371.326315,60.3226456 375.077,64.526 L375.077,56.087 C375.077,53.0476515 373.977678,50.6550087 371.779,48.909 C369.580322,47.1629913 366.735017,46.29 363.243,46.29 C357.616972,46.29 352.831686,48.4563117 348.887,52.789 L345.492,47.745 C350.471358,42.5716408 356.711629,39.985 364.213,39.985 C369.58036,39.985 373.945317,41.2783204 377.308,43.865 C380.670683,46.4516796 382.352,50.4286398 382.352,55.796 L382.352,88 Z M362.273,83.926 C368.028362,83.926 372.296319,81.9860194 375.077,78.106 L375.077,69.182 C372.231652,65.3666476 367.963695,63.459 362.273,63.459 C358.84565,63.459 356.048844,64.4128238 353.8825,66.3205 C351.716156,68.2281762 350.633,70.6693185 350.633,73.644 C350.633,76.6833485 351.716156,79.1568238 353.8825,81.0645 C356.048844,82.9721762 358.84565,83.926 362.273,83.926 Z M405.274,88 L397.999,88 L397.999,23.301 L405.274,23.301 L405.274,88 Z M462.049,88 L454.774,88 L454.774,81.016 C450.764647,86.4480272 445.494366,89.164 438.963,89.164 C432.754969,89.164 427.727186,86.9491888 423.8795,82.5195 C420.031814,78.0898112 418.108,72.1243708 418.108,64.623 C418.108,57.1862961 420.047981,51.2208558 423.928,46.7265 C427.808019,42.2321442 432.819636,39.985 438.963,39.985 C445.429699,39.985 450.69998,42.7333059 454.774,48.23 L454.774,23.301 L462.049,23.301 L462.049,88 Z M440.806,82.665 C443.586681,82.665 446.286487,81.9375073 448.9055,80.4825 C451.524513,79.0274927 453.48066,77.2653437 454.774,75.196 L454.774,54.05 C453.48066,51.9159893 451.524513,50.1215073 448.9055,48.6665 C446.286487,47.2114927 443.586681,46.484 440.806,46.484 C436.149977,46.484 432.464014,48.181483 429.748,51.5765 C427.031986,54.971517 425.674,59.3203068 425.674,64.623 C425.674,69.9256932 427.031986,74.2583165 429.748,77.621 C432.464014,80.9836835 436.149977,82.665 440.806,82.665 Z M541.067,88 L502.946,88 L502.946,23.301 L510.997,23.301 L510.997,80.822 L541.067,80.822 L541.067,88 Z M587.754,88 L580.479,88 L580.479,82.665 C576.663648,86.9976883 571.490366,89.164 564.959,89.164 C560.690979,89.164 556.908016,87.7736806 553.61,84.993 C550.311984,82.2123194 548.663,78.4293573 548.663,73.644 C548.663,68.6646418 550.279651,64.8493466 553.513,62.198 C556.746349,59.5466534 560.561645,58.221 564.959,58.221 C571.555033,58.221 576.728315,60.3226456 580.479,64.526 L580.479,56.087 C580.479,53.0476515 579.379678,50.6550087 577.181,48.909 C574.982322,47.1629913 572.137017,46.29 568.645,46.29 C563.018972,46.29 558.233686,48.4563117 554.289,52.789 L550.894,47.745 C555.873358,42.5716408 562.113629,39.985 569.615,39.985 C574.98236,39.985 579.347317,41.2783204 582.71,43.865 C586.072683,46.4516796 587.754,50.4286398 587.754,55.796 L587.754,88 Z M567.675,83.926 C573.430362,83.926 577.698319,81.9860194 580.479,78.106 L580.479,69.182 C577.633652,65.3666476 573.365695,63.459 567.675,63.459 C564.24765,63.459 561.450844,64.4128238 559.2845,66.3205 C557.118156,68.2281762 556.035,70.6693185 556.035,73.644 C556.035,76.6833485 557.118156,79.1568238 559.2845,81.0645 C561.450844,82.9721762 564.24765,83.926 567.675,83.926 Z M610.676,75.293 C611.96934,77.3623437 613.925487,79.1083262 616.5445,80.531 C619.163513,81.9536738 621.895652,82.665 624.741,82.665 C629.332356,82.665 632.985986,80.9836835 635.702,77.621 C638.418014,74.2583165 639.776,69.9256932 639.776,64.623 C639.776,59.3203068 638.418014,54.971517 635.702,51.5765 C632.985986,48.181483 629.332356,46.484 624.741,46.484 C621.895652,46.484 619.163513,47.2114927 616.5445,48.6665 C613.925487,50.1215073 611.96934,51.9159893 610.676,54.05 L610.676,75.293 Z M610.676,88 L603.401,88 L603.401,23.301 L610.676,23.301 L610.676,48.23 C614.75002,42.7333059 620.020301,39.985 626.487,39.985 C632.695031,39.985 637.722814,42.2321442 641.5705,46.7265 C645.418186,51.2208558 647.342,57.1862961 647.342,64.623 C647.342,72.1243708 645.418186,78.0898112 641.5705,82.5195 C637.722814,86.9491888 632.695031,89.164 626.487,89.164 C619.955634,89.164 614.685353,86.4480272 610.676,81.016 L610.676,88 Z M675.114,89.164 C667.224627,89.164 660.91969,86.7066912 656.199,81.792 L659.885,76.554 C661.501675,78.4293427 663.716486,80.0136602 666.5295,81.307 C669.342514,82.6003398 672.268651,83.247 675.308,83.247 C678.800017,83.247 681.532157,82.5033408 683.5045,81.016 C685.476843,79.5286592 686.463,77.5886786 686.463,75.196 C686.463,73.1266563 685.460677,71.4938393 683.456,70.2975 C681.451323,69.1011607 679.026348,68.1958364 676.181,67.5815 C673.335652,66.9671636 670.506514,66.2558374 667.6935,65.4475 C664.880486,64.6391626 662.471677,63.2488432 660.467,61.2765 C658.462323,59.3041568 657.46,56.7013495 657.46,53.468 C657.46,49.6526476 659.011984,46.4516796 662.116,43.865 C665.220016,41.2783204 669.45564,39.985 674.823,39.985 C682.001036,39.985 687.788645,42.2483107 692.186,46.775 L688.791,51.819 C685.492984,47.8743136 680.83703,45.902 674.823,45.902 C671.654317,45.902 669.132343,46.5971597 667.257,47.9875 C665.381657,49.3778403 664.444,51.1399893 664.444,53.274 C664.444,54.8260078 665.155326,56.1193282 666.578,57.154 C668.000674,58.1886718 669.795156,58.9323311 671.9615,59.385 C674.127844,59.8376689 676.455821,60.4196631 678.9455,61.131 C681.435179,61.8423369 683.763156,62.6344956 685.9295,63.5075 C688.095844,64.3805044 689.890326,65.8031568 691.313,67.7755 C692.735674,69.7478432 693.447,72.1566524 693.447,75.002 C693.447,79.1406874 691.846516,82.5356534 688.6455,85.187 C685.444484,87.8383466 680.934029,89.164 675.114,89.164 Z M207.953,178 L198.738,178 L193.015,163.547 L160.811,163.547 L155.088,178 L145.873,178 L171.966,113.301 L181.957,113.301 L207.953,178 Z M190.687,156.466 L176.913,121.546 L163.236,156.466 L190.687,156.466 Z M236.762,179.164 C229.842632,179.164 224.216688,176.819857 219.884,172.1315 C215.551312,167.443143 213.385,161.574702 213.385,154.526 C213.385,147.477298 215.551312,141.625023 219.884,136.969 C224.216688,132.312977 229.842632,129.985 236.762,129.985 C244.004703,129.985 249.727646,132.700973 253.931,138.133 L249.081,142.498 C246.170985,138.488647 242.194025,136.484 237.15,136.484 C232.299976,136.484 228.387682,138.181483 225.413,141.5765 C222.438318,144.971517 220.951,149.287974 220.951,154.526 C220.951,159.828693 222.438318,164.177483 225.413,167.5725 C228.387682,170.967517 232.299976,172.665 237.15,172.665 C242.064691,172.665 246.041651,170.62802 249.081,166.554 L253.931,171.016 C249.727646,176.448027 244.004703,179.164 236.762,179.164 Z M284.874,179.164 C277.954632,179.164 272.328688,176.819857 267.996,172.1315 C263.663312,167.443143 261.497,161.574702 261.497,154.526 C261.497,147.477298 263.663312,141.625023 267.996,136.969 C272.328688,132.312977 277.954632,129.985 284.874,129.985 C292.116703,129.985 297.839646,132.700973 302.043,138.133 L297.193,142.498 C294.282985,138.488647 290.306025,136.484 285.262,136.484 C280.411976,136.484 276.499682,138.181483 273.525,141.5765 C270.550318,144.971517 269.063,149.287974 269.063,154.526 C269.063,159.828693 270.550318,164.177483 273.525,167.5725 C276.499682,170.967517 280.411976,172.665 285.262,172.665 C290.176691,172.665 294.153651,170.62802 297.193,166.554 L302.043,171.016 C297.839646,176.448027 292.116703,179.164 284.874,179.164 Z M333.568,179.164 C326.519298,179.164 320.764022,176.884523 316.302,172.3255 C311.839978,167.766477 309.609,161.83337 309.609,154.526 C309.609,147.671299 311.807645,141.867524 316.205,137.1145 C320.602355,132.361476 326.098967,129.985 332.695,129.985 C339.614368,129.985 345.094813,132.361476 349.1365,137.1145 C353.178187,141.867524 355.199,147.865297 355.199,155.108 L355.199,156.951 L317.369,156.951 C317.692335,161.542356 319.357485,165.389984 322.3645,168.494 C325.371515,171.598016 329.299976,173.15 334.15,173.15 C339.970029,173.15 344.819981,171.145353 348.7,167.136 L352.192,171.889 C347.212642,176.739024 341.004704,179.164 333.568,179.164 Z M348.021,151.519 C347.956333,147.574314 346.598347,144.001516 343.947,140.8005 C341.295653,137.599484 337.512691,135.999 332.598,135.999 C327.941977,135.999 324.27218,137.583317 321.5885,140.752 C318.90482,143.920683 317.466001,147.509647 317.272,151.519 L348.021,151.519 Z M374.211,178 L366.936,178 L366.936,113.301 L374.211,113.301 L374.211,178 Z M410.004,179.164 C402.955298,179.164 397.200022,176.884523 392.738,172.3255 C388.275978,167.766477 386.045,161.83337 386.045,154.526 C386.045,147.671299 388.243645,141.867524 392.641,137.1145 C397.038355,132.361476 402.534967,129.985 409.131,129.985 C416.050368,129.985 421.530813,132.361476 425.5725,137.1145 C429.614187,141.867524 431.635,147.865297 431.635,155.108 L431.635,156.951 L393.805,156.951 C394.128335,161.542356 395.793485,165.389984 398.8005,168.494 C401.807515,171.598016 405.735976,173.15 410.586,173.15 C416.406029,173.15 421.255981,171.145353 425.136,167.136 L428.628,171.889 C423.648642,176.739024 417.440704,179.164 410.004,179.164 Z M424.457,151.519 C424.392333,147.574314 423.034347,144.001516 420.383,140.8005 C417.731653,137.599484 413.948691,135.999 409.034,135.999 C404.377977,135.999 400.70818,137.583317 398.0245,140.752 C395.34082,143.920683 393.902001,147.509647 393.708,151.519 L424.457,151.519 Z M450.647,178 L443.372,178 L443.372,131.149 L450.647,131.149 L450.647,138.618 C455.109022,132.927305 460.314637,130.082 466.264,130.082 L466.264,137.551 C465.099994,137.421666 464.162337,137.357 463.451,137.357 C461.187655,137.357 458.76268,138.116826 456.176,139.6365 C453.58932,141.156174 451.746339,142.88599 450.647,144.826 L450.647,178 Z M511.951,178 L504.676,178 L504.676,172.665 C500.860648,176.997688 495.687366,179.164 489.156,179.164 C484.887979,179.164 481.105016,177.773681 477.807,174.993 C474.508984,172.212319 472.86,168.429357 472.86,163.644 C472.86,158.664642 474.476651,154.849347 477.71,152.198 C480.943349,149.546653 484.758645,148.221 489.156,148.221 C495.752033,148.221 500.925315,150.322646 504.676,154.526 L504.676,146.087 C504.676,143.047651 503.576678,140.655009 501.378,138.909 C499.179322,137.162991 496.334017,136.29 492.842,136.29 C487.215972,136.29 482.430686,138.456312 478.486,142.789 L475.091,137.745 C480.070358,132.571641 486.310629,129.985 493.812,129.985 C499.17936,129.985 503.544317,131.27832 506.907,133.865 C510.269683,136.45168 511.951,140.42864 511.951,145.796 L511.951,178 Z M491.872,173.926 C497.627362,173.926 501.895319,171.986019 504.676,168.106 L504.676,159.182 C501.830652,155.366648 497.562695,153.459 491.872,153.459 C488.44465,153.459 485.647844,154.412824 483.4815,156.3205 C481.315156,158.228176 480.232,160.669318 480.232,163.644 C480.232,166.683349 481.315156,169.156824 483.4815,171.0645 C485.647844,172.972176 488.44465,173.926 491.872,173.926 Z M538.529,179.164 C531.544965,179.164 528.053,175.51037 528.053,168.203 L528.053,137.551 L520.293,137.551 L520.293,131.149 L528.053,131.149 L528.053,118.345 L535.425,118.345 L535.425,131.149 L544.931,131.149 L544.931,137.551 L535.425,137.551 L535.425,166.651 C535.425,168.461676 535.829163,169.916661 536.6375,171.016 C537.445837,172.115339 538.593659,172.665 540.081,172.665 C542.150344,172.665 543.799327,171.986007 545.028,170.628 L547.162,176.157 C545.027989,178.161677 542.150351,179.164 538.529,179.164 Z M592.364,172.083 C588.160646,176.80369 582.567035,179.164 575.583,179.164 C568.598965,179.164 562.989188,176.80369 558.7535,172.083 C554.517812,167.36231 552.4,161.510035 552.4,154.526 C552.4,147.541965 554.517812,141.705857 558.7535,137.0175 C562.989188,132.329143 568.598965,129.985 575.583,129.985 C582.567035,129.985 588.176812,132.329143 592.4125,137.0175 C596.648188,141.705857 598.766,147.541965 598.766,154.526 C598.766,161.510035 596.632021,167.36231 592.364,172.083 Z M564.234,167.427 C567.014681,170.919017 570.797643,172.665 575.583,172.665 C580.368357,172.665 584.151319,170.902851 586.932,167.3785 C589.712681,163.854149 591.103,159.570025 591.103,154.526 C591.103,149.481975 589.712681,145.214017 586.932,141.722 C584.151319,138.229983 580.368357,136.484 575.583,136.484 C570.797643,136.484 567.014681,138.229983 564.234,141.722 C561.453319,145.214017 560.063,149.481975 560.063,154.526 C560.063,159.570025 561.453319,163.870316 564.234,167.427 Z M617.875,178 L610.6,178 L610.6,131.149 L617.875,131.149 L617.875,138.618 C622.337022,132.927305 627.542637,130.082 633.492,130.082 L633.492,137.551 C632.327994,137.421666 631.390337,137.357 630.679,137.357 C628.415655,137.357 625.99068,138.116826 623.404,139.6365 C620.81732,141.156174 618.974339,142.88599 617.875,144.826 L617.875,178 Z"/></g></g></svg>