<?xml version="1.0" encoding="UTF-8"?>
<svg width="693px" height="180px" viewBox="0 0 693 180" version="1.1" xmlns="http://www.w3.org/2000/svg" xmlns:xlink="http://www.w3.org/1999/xlink">
    <!-- Generator: Sketch 52.5 (67469) - http://www.bohemiancoding.com/sketch -->
    <title>Combination mark</title>
    <desc>Created with Sketch.</desc>
    <g id="Page-1" stroke="none" stroke-width="1" fill="none" fill-rule="evenodd">
        <g id="Combination-mark">
            <g id="Symbol" fill="#007BFF">
                <path d="M58,116 C25.967,116 0,90.033 0,58 C0,25.967 25.967,0 58,0 C90.033,0 116,25.967 116,58 C116,90.033 90.033,116 58,116 Z M58.5,105 C84.734,105 106,83.734 106,57.5 C106,31.266 84.734,10 58.5,10 C32.266,10 11,31.266 11,57.5 C11,83.734 32.266,105 58.5,105 Z" id="Shape"></path>
                <circle id="Oval" cx="58.5" cy="57.5" r="35.5"></circle>
            </g>
            <text id="Wordmark" font-family="ProximaNova-Regular, Proxima Nova" font-size="97" font-weight="normal" line-spacing="90" letter-spacing="1" fill="#000000">
                <tspan x="145" y="111">Oswald Lab</tspan>
                <tspan x="652.901" y="111">s</tspan>
                <tspan x="145" y="201">Platform</tspan>
            </text>
        </g>
    </g>
</svg>