<svg xmlns="http://www.w3.org/2000/svg" xmlns:xlink="http://www.w3.org/1999/xlink" width="694" height="180" version="1.1" viewBox="0 0 694 180"><title>Combination mark</title><desc>Created with Sketch.</desc><g id="Page-1" fill="none" fill-rule="evenodd" stroke="none" stroke-width="1"><g id="Combination-mark"><g id="Symbol" fill="#007BFF"><path id="Shape" d="M58,116 C25.967,116 0,90.033 0,58 C0,25.967 25.967,0 58,0 C90.033,0 116,25.967 116,58 C116,90.033 90.033,116 58,116 Z M58.5,105 C84.734,105 106,83.734 106,57.5 C106,31.266 84.734,10 58.5,10 C32.266,10 11,31.266 11,57.5 C11,83.734 32.266,105 58.5,105 Z"/><circle id="Oval" cx="58.5" cy="57.5" r="35.5"/></g><path id="Wordmark" fill="#000" d="M205.237,79.658 C199.22297,85.995365 191.495381,89.164 182.054,89.164 C172.612619,89.164 164.901197,85.995365 158.9195,79.658 C152.937803,73.320635 149.947,65.3343815 149.947,55.699 C149.947,46.0636185 152.937803,38.077365 158.9195,31.74 C164.901197,25.402635 172.612619,22.234 182.054,22.234 C191.495381,22.234 199.22297,25.402635 205.237,31.74 C211.25103,38.077365 214.258,46.0636185 214.258,55.699 C214.258,65.3343815 211.25103,73.320635 205.237,79.658 Z M182.054,81.986 C189.167369,81.986 194.922645,79.5125247 199.32,74.5655 C203.717355,69.6184753 205.916,63.3297048 205.916,55.699 C205.916,48.0682952 203.717355,41.7795247 199.32,36.8325 C194.922645,31.8854753 189.167369,29.412 182.054,29.412 C174.875964,29.412 169.120688,31.8693088 164.788,36.784 C160.455312,41.6986912 158.289,48.0036282 158.289,55.699 C158.289,63.3297048 160.455312,69.6184753 164.788,74.5655 C169.120688,79.5125247 174.875964,81.986 182.054,81.986 Z M242.418,89.164 C234.528627,89.164 228.22369,86.7066912 223.503,81.792 L227.189,76.554 C228.805675,78.4293427 231.020486,80.0136602 233.8335,81.307 C236.646514,82.6003398 239.572651,83.247 242.612,83.247 C246.104017,83.247 248.836157,82.5033408 250.8085,81.016 C252.780843,79.5286592 253.767,77.5886786 253.767,75.196 C253.767,73.1266563 252.764677,71.4938393 250.76,70.2975 C248.755323,69.1011607 246.330348,68.1958364 243.485,67.5815 C240.639652,66.9671636 237.810514,66.2558374 234.9975,65.4475 C232.184486,64.6391626 229.775677,63.2488432 227.771,61.2765 C225.766323,59.3041568 224.764,56.7013495 224.764,53.468 C224.764,49.6526476 226.315984,46.4516796 229.42,43.865 C232.524016,41.2783204 236.75964,39.985 242.127,39.985 C249.305036,39.985 255.092645,42.2483107 259.49,46.775 L256.095,51.819 C252.796984,47.8743136 248.14103,45.902 242.127,45.902 C238.958317,45.902 236.436343,46.5971597 234.561,47.9875 C232.685657,49.3778403 231.748,51.1399893 231.748,53.274 C231.748,54.8260078 232.459326,56.1193282 233.882,57.154 C235.304674,58.1886718 237.099156,58.9323311 239.2655,59.385 C241.431844,59.8376689 243.759821,60.4196631 246.2495,61.131 C248.739179,61.8423369 251.067156,62.6344956 253.2335,63.5075 C255.399844,64.3805044 257.194326,65.8031568 258.617,67.7755 C260.039674,69.7478432 260.751,72.1566524 260.751,75.002 C260.751,79.1406874 259.150516,82.5356534 255.9495,85.187 C252.748484,87.8383466 248.238029,89.164 242.418,89.164 Z M321.503,88 L314.131,88 L301.909,50.364 L289.687,88 L282.412,88 L267.474,41.149 L275.04,41.149 L286.486,78.494 L298.805,41.149 L305.11,41.149 L317.332,78.494 L328.778,41.149 L336.441,41.149 L321.503,88 Z M382.352,88 L375.077,88 L375.077,82.665 C371.261648,86.9976883 366.088366,89.164 359.557,89.164 C355.288979,89.164 351.506016,87.7736806 348.208,84.993 C344.909984,82.2123194 343.261,78.4293573 343.261,73.644 C343.261,68.6646418 344.877651,64.8493466 348.111,62.198 C351.34435,59.5466534 355.159645,58.221 359.557,58.221 C366.153033,58.221 371.326315,60.3226456 375.077,64.526 L375.077,56.087 C375.077,53.0476515 373.977678,50.6550087 371.779,48.909 C369.580322,47.1629913 366.735017,46.29 363.243,46.29 C357.616972,46.29 352.831686,48.4563117 348.887,52.789 L345.492,47.745 C350.471358,42.5716408 356.711629,39.985 364.213,39.985 C369.58036,39.985 373.945317,41.2783204 377.308,43.865 C380.670683,46.4516796 382.352,50.4286398 382.352,55.796 L382.352,88 Z M362.273,83.926 C368.028362,83.926 372.296319,81.9860194 375.077,78.106 L375.077,69.182 C372.231652,65.3666476 367.963695,63.459 362.273,63.459 C358.84565,63.459 356.048844,64.4128238 353.8825,66.3205 C351.716156,68.2281762 350.633,70.6693185 350.633,73.644 C350.633,76.6833485 351.716156,79.1568238 353.8825,81.0645 C356.048844,82.9721762 358.84565,83.926 362.273,83.926 Z M405.274,88 L397.999,88 L397.999,23.301 L405.274,23.301 L405.274,88 Z M462.049,88 L454.774,88 L454.774,81.016 C450.764647,86.4480272 445.494366,89.164 438.963,89.164 C432.754969,89.164 427.727186,86.9491888 423.8795,82.5195 C420.031814,78.0898112 418.108,72.1243708 418.108,64.623 C418.108,57.1862961 420.047981,51.2208558 423.928,46.7265 C427.808019,42.2321442 432.819636,39.985 438.963,39.985 C445.429699,39.985 450.69998,42.7333059 454.774,48.23 L454.774,23.301 L462.049,23.301 L462.049,88 Z M440.806,82.665 C443.586681,82.665 446.286487,81.9375073 448.9055,80.4825 C451.524513,79.0274927 453.48066,77.2653437 454.774,75.196 L454.774,54.05 C453.48066,51.9159893 451.524513,50.1215073 448.9055,48.6665 C446.286487,47.2114927 443.586681,46.484 440.806,46.484 C436.149977,46.484 432.464014,48.181483 429.748,51.5765 C427.031986,54.971517 425.674,59.3203068 425.674,64.623 C425.674,69.9256932 427.031986,74.2583165 429.748,77.621 C432.464014,80.9836835 436.149977,82.665 440.806,82.665 Z M541.067,88 L502.946,88 L502.946,23.301 L510.997,23.301 L510.997,80.822 L541.067,80.822 L541.067,88 Z M587.754,88 L580.479,88 L580.479,82.665 C576.663648,86.9976883 571.490366,89.164 564.959,89.164 C560.690979,89.164 556.908016,87.7736806 553.61,84.993 C550.311984,82.2123194 548.663,78.4293573 548.663,73.644 C548.663,68.6646418 550.279651,64.8493466 553.513,62.198 C556.746349,59.5466534 560.561645,58.221 564.959,58.221 C571.555033,58.221 576.728315,60.3226456 580.479,64.526 L580.479,56.087 C580.479,53.0476515 579.379678,50.6550087 577.181,48.909 C574.982322,47.1629913 572.137017,46.29 568.645,46.29 C563.018972,46.29 558.233686,48.4563117 554.289,52.789 L550.894,47.745 C555.873358,42.5716408 562.113629,39.985 569.615,39.985 C574.98236,39.985 579.347317,41.2783204 582.71,43.865 C586.072683,46.4516796 587.754,50.4286398 587.754,55.796 L587.754,88 Z M567.675,83.926 C573.430362,83.926 577.698319,81.9860194 580.479,78.106 L580.479,69.182 C577.633652,65.3666476 573.365695,63.459 567.675,63.459 C564.24765,63.459 561.450844,64.4128238 559.2845,66.3205 C557.118156,68.2281762 556.035,70.6693185 556.035,73.644 C556.035,76.6833485 557.118156,79.1568238 559.2845,81.0645 C561.450844,82.9721762 564.24765,83.926 567.675,83.926 Z M610.676,75.293 C611.96934,77.3623437 613.925487,79.1083262 616.5445,80.531 C619.163513,81.9536738 621.895652,82.665 624.741,82.665 C629.332356,82.665 632.985986,80.9836835 635.702,77.621 C638.418014,74.2583165 639.776,69.9256932 639.776,64.623 C639.776,59.3203068 638.418014,54.971517 635.702,51.5765 C632.985986,48.181483 629.332356,46.484 624.741,46.484 C621.895652,46.484 619.163513,47.2114927 616.5445,48.6665 C613.925487,50.1215073 611.96934,51.9159893 610.676,54.05 L610.676,75.293 Z M610.676,88 L603.401,88 L603.401,23.301 L610.676,23.301 L610.676,48.23 C614.75002,42.7333059 620.020301,39.985 626.487,39.985 C632.695031,39.985 637.722814,42.2321442 641.5705,46.7265 C645.418186,51.2208558 647.342,57.1862961 647.342,64.623 C647.342,72.1243708 645.418186,78.0898112 641.5705,82.5195 C637.722814,86.9491888 632.695031,89.164 626.487,89.164 C619.955634,89.164 614.685353,86.4480272 610.676,81.016 L610.676,88 Z M675.114,89.164 C667.224627,89.164 660.91969,86.7066912 656.199,81.792 L659.885,76.554 C661.501675,78.4293427 663.716486,80.0136602 666.5295,81.307 C669.342514,82.6003398 672.268651,83.247 675.308,83.247 C678.800017,83.247 681.532157,82.5033408 683.5045,81.016 C685.476843,79.5286592 686.463,77.5886786 686.463,75.196 C686.463,73.1266563 685.460677,71.4938393 683.456,70.2975 C681.451323,69.1011607 679.026348,68.1958364 676.181,67.5815 C673.335652,66.9671636 670.506514,66.2558374 667.6935,65.4475 C664.880486,64.6391626 662.471677,63.2488432 660.467,61.2765 C658.462323,59.3041568 657.46,56.7013495 657.46,53.468 C657.46,49.6526476 659.011984,46.4516796 662.116,43.865 C665.220016,41.2783204 669.45564,39.985 674.823,39.985 C682.001036,39.985 687.788645,42.2483107 692.186,46.775 L688.791,51.819 C685.492984,47.8743136 680.83703,45.902 674.823,45.902 C671.654317,45.902 669.132343,46.5971597 667.257,47.9875 C665.381657,49.3778403 664.444,51.1399893 664.444,53.274 C664.444,54.8260078 665.155326,56.1193282 666.578,57.154 C668.000674,58.1886718 669.795156,58.9323311 671.9615,59.385 C674.127844,59.8376689 676.455821,60.4196631 678.9455,61.131 C681.435179,61.8423369 683.763156,62.6344956 685.9295,63.5075 C688.095844,64.3805044 689.890326,65.8031568 691.313,67.7755 C692.735674,69.7478432 693.447,72.1566524 693.447,75.002 C693.447,79.1406874 691.846516,82.5356534 688.6455,85.187 C685.444484,87.8383466 680.934029,89.164 675.114,89.164 Z M199.514,178 L190.008,178 L173.615,152.295 L160.617,152.295 L160.617,178 L152.566,178 L152.566,113.301 L178.562,113.301 C184.57603,113.301 189.474481,115.079316 193.2575,118.636 C197.040519,122.192684 198.932,126.913304 198.932,132.798 C198.932,138.359361 197.299183,142.788984 194.0335,146.087 C190.767817,149.385016 186.77469,151.227998 182.054,151.616 L199.514,178 Z M177.592,145.214 C181.407352,145.214 184.527488,144.050012 186.9525,141.722 C189.377512,139.393988 190.59,136.419351 190.59,132.798 C190.59,129.111982 189.377512,126.137345 186.9525,123.874 C184.527488,121.610655 181.407352,120.479 177.592,120.479 L160.617,120.479 L160.617,145.214 L177.592,145.214 Z M229.681,179.164 C222.632298,179.164 216.877022,176.884523 212.415,172.3255 C207.952978,167.766477 205.722,161.83337 205.722,154.526 C205.722,147.671299 207.920645,141.867524 212.318,137.1145 C216.715355,132.361476 222.211967,129.985 228.808,129.985 C235.727368,129.985 241.207813,132.361476 245.2495,137.1145 C249.291187,141.867524 251.312,147.865297 251.312,155.108 L251.312,156.951 L213.482,156.951 C213.805335,161.542356 215.470485,165.389984 218.4775,168.494 C221.484515,171.598016 225.412976,173.15 230.263,173.15 C236.083029,173.15 240.932981,171.145353 244.813,167.136 L248.305,171.889 C243.325642,176.739024 237.117704,179.164 229.681,179.164 Z M244.134,151.519 C244.069333,147.574314 242.711347,144.001516 240.06,140.8005 C237.408653,137.599484 233.625691,135.999 228.711,135.999 C224.054977,135.999 220.38518,137.583317 217.7015,140.752 C215.01782,143.920683 213.579001,147.509647 213.385,151.519 L244.134,151.519 Z M277.987,179.164 C270.097627,179.164 263.79269,176.706691 259.072,171.792 L262.758,166.554 C264.374675,168.429343 266.589486,170.01366 269.4025,171.307 C272.215514,172.60034 275.141651,173.247 278.181,173.247 C281.673017,173.247 284.405157,172.503341 286.3775,171.016 C288.349843,169.528659 289.336,167.588679 289.336,165.196 C289.336,163.126656 288.333677,161.493839 286.329,160.2975 C284.324323,159.101161 281.899348,158.195836 279.054,157.5815 C276.208652,156.967164 273.379514,156.255837 270.5665,155.4475 C267.753486,154.639163 265.344677,153.248843 263.34,151.2765 C261.335323,149.304157 260.333,146.701349 260.333,143.468 C260.333,139.652648 261.884984,136.45168 264.989,133.865 C268.093016,131.27832 272.32864,129.985 277.696,129.985 C284.874036,129.985 290.661645,132.248311 295.059,136.775 L291.664,141.819 C288.365984,137.874314 283.71003,135.902 277.696,135.902 C274.527317,135.902 272.005343,136.59716 270.13,137.9875 C268.254657,139.37784 267.317,141.139989 267.317,143.274 C267.317,144.826008 268.028326,146.119328 269.451,147.154 C270.873674,148.188672 272.668156,148.932331 274.8345,149.385 C277.000844,149.837669 279.328821,150.419663 281.8185,151.131 C284.308179,151.842337 286.636156,152.634496 288.8025,153.5075 C290.968844,154.380504 292.763326,155.803157 294.186,157.7755 C295.608674,159.747843 296.32,162.156652 296.32,165.002 C296.32,169.140687 294.719516,172.535653 291.5185,175.187 C288.317484,177.838347 283.807029,179.164 277.987,179.164 Z M329.397,179.164 C322.348298,179.164 316.593022,176.884523 312.131,172.3255 C307.668978,167.766477 305.438,161.83337 305.438,154.526 C305.438,147.671299 307.636645,141.867524 312.034,137.1145 C316.431355,132.361476 321.927967,129.985 328.524,129.985 C335.443368,129.985 340.923813,132.361476 344.9655,137.1145 C349.007187,141.867524 351.028,147.865297 351.028,155.108 L351.028,156.951 L313.198,156.951 C313.521335,161.542356 315.186485,165.389984 318.1935,168.494 C321.200515,171.598016 325.128976,173.15 329.979,173.15 C335.799029,173.15 340.648981,171.145353 344.529,167.136 L348.021,171.889 C343.041642,176.739024 336.833704,179.164 329.397,179.164 Z M343.85,151.519 C343.785333,147.574314 342.427347,144.001516 339.776,140.8005 C337.124653,137.599484 333.341691,135.999 328.427,135.999 C323.770977,135.999 320.10118,137.583317 317.4175,140.752 C314.73382,143.920683 313.295001,147.509647 313.101,151.519 L343.85,151.519 Z M399.334,178 L392.059,178 L392.059,172.665 C388.243648,176.997688 383.070366,179.164 376.539,179.164 C372.270979,179.164 368.488016,177.773681 365.19,174.993 C361.891984,172.212319 360.243,168.429357 360.243,163.644 C360.243,158.664642 361.85965,154.849347 365.093,152.198 C368.326349,149.546653 372.141645,148.221 376.539,148.221 C383.135033,148.221 388.308315,150.322646 392.059,154.526 L392.059,146.087 C392.059,143.047651 390.959678,140.655009 388.761,138.909 C386.562322,137.162991 383.717017,136.29 380.225,136.29 C374.598972,136.29 369.813686,138.456312 365.869,142.789 L362.474,137.745 C367.453358,132.571641 373.693629,129.985 381.195,129.985 C386.56236,129.985 390.927317,131.27832 394.29,133.865 C397.652683,136.45168 399.334,140.42864 399.334,145.796 L399.334,178 Z M379.255,173.926 C385.010362,173.926 389.278319,171.986019 392.059,168.106 L392.059,159.182 C389.213652,155.366648 384.945695,153.459 379.255,153.459 C375.82765,153.459 373.030844,154.412824 370.8645,156.3205 C368.698156,158.228176 367.615,160.669318 367.615,163.644 C367.615,166.683349 368.698156,169.156824 370.8645,171.0645 C373.030844,172.972176 375.82765,173.926 379.255,173.926 Z M421.256,178 L413.981,178 L413.981,131.149 L421.256,131.149 L421.256,138.618 C425.718022,132.927305 430.923637,130.082 436.873,130.082 L436.873,137.551 C435.708994,137.421666 434.771337,137.357 434.06,137.357 C431.796655,137.357 429.37168,138.116826 426.785,139.6365 C424.19832,141.156174 422.355339,142.88599 421.256,144.826 L421.256,178 Z M466.652,179.164 C459.732632,179.164 454.106688,176.819857 449.774,172.1315 C445.441312,167.443143 443.275,161.574702 443.275,154.526 C443.275,147.477298 445.441312,141.625023 449.774,136.969 C454.106688,132.312977 459.732632,129.985 466.652,129.985 C473.894703,129.985 479.617646,132.700973 483.821,138.133 L478.971,142.498 C476.060985,138.488647 472.084025,136.484 467.04,136.484 C462.189976,136.484 458.277682,138.181483 455.303,141.5765 C452.328318,144.971517 450.841,149.287974 450.841,154.526 C450.841,159.828693 452.328318,164.177483 455.303,167.5725 C458.277682,170.967517 462.189976,172.665 467.04,172.665 C471.954691,172.665 475.931651,170.62802 478.971,166.554 L483.821,171.016 C479.617646,176.448027 473.894703,179.164 466.652,179.164 Z M533.097,178 L525.822,178 L525.822,147.154 C525.822,143.209314 524.916676,140.444841 523.106,138.8605 C521.295324,137.276159 518.67635,136.484 515.249,136.484 C512.597653,136.484 509.994846,137.195326 507.4405,138.618 C504.886154,140.040674 502.897674,141.754323 501.475,143.759 L501.475,178 L494.2,178 L494.2,113.301 L501.475,113.301 L501.475,137.939 C503.221009,135.740322 505.613651,133.865008 508.653,132.313 C511.692349,130.760992 514.860984,129.985 518.159,129.985 C528.117716,129.985 533.097,134.964284 533.097,144.923 L533.097,178 Z"/></g></g></svg>