<?xml version="1.0" standalone="no"?>
<!DOCTYPE svg PUBLIC "-//W3C//DTD SVG 20010904//EN"
 "http://www.w3.org/TR/2001/REC-SVG-20010904/DTD/svg10.dtd">
<svg version="1.0" xmlns="http://www.w3.org/2000/svg"
 width="1280.000000pt" height="1280.000000pt" viewBox="0 0 1280.000000 1280.000000"
 preserveAspectRatio="xMidYMid meet">
<metadata>
Created by potrace 1.11, written by Peter Selinger 2001-2013
</metadata>
<g transform="translate(0.000000,1280.000000) scale(0.100000,-0.100000)"
fill="#000000" stroke="none">
<path d="M6120 12790 c-1176 -53 -2296 -419 -3270 -1070 -1035 -692 -1848
-1670 -2337 -2814 -570 -1334 -666 -2856 -267 -4257 255 -899 694 -1712 1313
-2434 124 -144 424 -449 576 -584 950 -848 2103 -1386 3355 -1565 330 -48 517
-60 910 -60 393 0 580 12 910 60 1509 216 2892 965 3898 2112 1549 1766 2006
4213 1199 6427 -570 1565 -1772 2876 -3287 3586 -938 439 -1970 645 -3000 599z
m-842 -3686 c251 -202 460 -370 465 -374 4 -3 -37 -36 -90 -72 -166 -112 -311
-235 -484 -407 -180 -181 -282 -299 -421 -490 -330 -453 -523 -882 -593 -1313
-3 -21 -2 -38 3 -38 4 0 57 9 118 21 317 59 639 -9 893 -188 90 -64 235 -212
299 -306 251 -365 301 -859 132 -1285 -65 -162 -170 -311 -319 -455 -276 -264
-592 -380 -995 -364 -279 11 -504 83 -736 235 -118 78 -337 298 -419 422 -247
372 -354 850 -322 1435 36 639 181 1179 471 1750 351 692 827 1264 1420 1709
63 47 116 86 118 86 2 0 209 -165 460 -366z m4012 -8 c253 -203 460 -370 460
-371 0 -2 -46 -34 -102 -73 -342 -237 -649 -544 -919 -922 -318 -444 -503
-863 -572 -1292 -5 -34 -4 -34 131 -8 246 48 527 7 746 -108 280 -147 523
-444 611 -747 90 -310 68 -679 -56 -953 -155 -342 -491 -636 -844 -737 -268
-77 -600 -71 -863 16 -337 111 -655 386 -845 729 -92 168 -175 426 -214 670
-26 166 -26 713 0 915 116 882 471 1673 1088 2420 109 132 457 479 589 588
141 116 313 246 322 244 4 -1 215 -168 468 -371z"/>
</g>
</svg>
