<?xml version="1.0" standalone="no"?>
<!DOCTYPE svg PUBLIC "-//W3C//DTD SVG 20010904//EN"
 "http://www.w3.org/TR/2001/REC-SVG-20010904/DTD/svg10.dtd">
<svg version="1.0" xmlns="http://www.w3.org/2000/svg"
 width="1280.000000pt" height="1280.000000pt" viewBox="0 0 1280.000000 1280.000000"
 preserveAspectRatio="xMidYMid meet">
<metadata>
Created by potrace 1.11, written by Peter Selinger 2001-2013
</metadata>
<g transform="translate(0.000000,1280.000000) scale(0.100000,-0.100000)"
fill="#000000" stroke="none">
<path d="M6120 12790 c-1176 -53 -2296 -419 -3270 -1070 -1035 -692 -1848
-1670 -2337 -2814 -570 -1334 -666 -2856 -267 -4257 255 -899 694 -1712 1313
-2434 124 -144 424 -449 576 -584 950 -848 2103 -1386 3355 -1565 330 -48 517
-60 910 -60 393 0 580 12 910 60 1509 216 2892 965 3898 2112 1549 1766 2006
4213 1199 6427 -570 1565 -1772 2876 -3287 3586 -938 439 -1970 645 -3000 599z
m-1536 -4649 l1566 -704 0 -1994 c0 -1097 -3 -1992 -7 -1990 -5 2 -713 320
-1575 707 l-1568 704 0 1994 c0 1151 4 1992 9 1990 5 -1 713 -320 1575 -707z
m5166 -1284 l0 -1993 -1557 -699 c-857 -384 -1566 -702 -1575 -707 -17 -8 -18
90 -18 1985 l0 1993 1573 707 c864 389 1573 707 1575 707 1 0 2 -897 2 -1993z"/>
</g>
</svg>
